Coordinates
version=1
nRows=5
nColumns=40
inDegrees=yes

Units are S.I. units (second, meters, Newtons, ...)
Angles are in degrees.

endheader
time	pelvis_tilt	pelvis_list	pelvis_rotation	pelvis_tx	pelvis_ty	pelvis_tz	hip_flexion_r	hip_adduction_r	hip_rotation_r	knee_angle_r	knee_angle_r_beta	ankle_angle_r	subtalar_angle_r	mtp_angle_r	hip_flexion_l	hip_adduction_l	hip_rotation_l	knee_angle_l	knee_angle_l_beta	ankle_angle_l	subtalar_angle_l	mtp_angle_l	lumbar_extension	lumbar_bending	lumbar_rotation	arm_flex_r	arm_add_r	arm_rot_r	elbow_flex_r	pro_sup_r	wrist_flex_r	wrist_dev_r	arm_flex_l	arm_add_l	arm_rot_l	elbow_flex_l	pro_sup_l	wrist_flex_l	wrist_dev_l
      6.34250000	     -1.58586246	     -5.13226426	     -4.06777299	      0.96717367	      0.91288535	      0.38922747	     25.48202223	     -5.50365893	      0.82766995	     64.41651844	     64.41651844	      5.03300177	    -10.97380712	     -0.27147471	     19.24622005	     -4.29672677	     -5.31173421	     36.26465911	     36.26465911	     21.54894443	    -18.21876615	      9.72903056	    -10.85278456	      6.85590208	      1.82115399	      9.03810314	    -12.82128629	     -7.53323739	     30.48527278	     46.49657773	      0.00000000	      0.00000000	     25.42064837	    -17.40038677	     14.27616569	     40.34836505	     45.75795819	      0.00000000	      0.00000000
      6.36357143	     -1.44781339	     -5.24222422	     -4.54511995	      0.96658368	      0.91381685	      0.38855610	     26.51033356	     -4.93244432	      1.14034456	     63.87142211	     63.87142211	      5.10784743	    -11.77094598	     -0.17565784	     18.52552154	     -4.37862132	     -5.66808839	     35.86450908	     35.86450908	     21.77747489	    -18.27310556	      9.79177143	    -10.96236485	      7.00761278	      1.96774549	      5.19009745	    -12.57778282	     -7.58165217	     28.60447688	     46.54318431	      0.00000000	      0.00000000	     27.52382400	    -17.72416022	     13.10451891	     42.08390986	     45.92458603	      0.00000000	      0.00000000
      6.38464286	     -1.49147749	     -5.32910892	     -4.98731348	      0.96588665	      0.91519213	      0.38812258	     27.47673725	     -4.49404457	      1.11188669	     62.49375746	     62.49375746	      5.46168640	    -12.09426493	     -0.16511226	     17.87195431	     -4.44754020	     -6.02013938	     35.18403937	     35.18403937	     21.86989025	    -18.22855756	      9.90561324	    -10.83045565	      7.18961221	      1.23413450	      1.85545798	    -12.07737656	     -7.59010362	     27.27531621	     46.56906106	      0.00000000	      0.00000000	     29.28243086	    -18.81429663	     12.32601395	     43.01270348	     46.03149147	      0.00000000	      0.00000000
      6.40571429	     -1.45834911	     -5.35323459	     -5.63464570	      0.96518741	      0.91743994	      0.38825844	     28.04551494	     -3.90396371	      1.31741102	     60.17568181	     60.17568181	      5.75354019	    -12.70231023	     -0.58790283	     16.84601806	     -4.50003509	     -6.68240557	     34.01169334	     34.01169334	     21.70613246	    -18.16833139	      9.87738538	    -10.98393314	      7.18886220	      2.19272581	     -2.00732887	    -11.90850296	     -7.74558668	     25.53372706	     46.62057788	      0.00000000	      0.00000000	     31.27121297	    -18.49048647	     10.22842746	     46.00183242	     46.29396522	      0.00000000	      0.00000000
      6.42678571	     -1.66949646	     -5.40006202	     -6.21160525	      0.96443435	      0.91984505	      0.38860733	     28.46210223	     -3.46402190	      1.05570139	     56.84567498	     56.84567498	      5.13316460	    -13.26094744	     -4.03056546	     15.93777643	     -4.60373010	     -7.37293549	     32.50490125	     32.50490125	     20.94174427	    -18.06102499	      8.55857229	    -10.82649002	      7.30192756	      1.24547158	     -4.59542860	    -11.37888731	     -8.76063894	     24.28299073	     46.73228475	      0.00000000	      0.00000000	     31.53319095	    -18.63571320	      3.31825841	     49.79458086	     46.95632995	      0.00000000	      0.00000000
